<svg width="520" height="100" viewBox="0 0 520 100" fill="none" xmlns="http://www.w3.org/2000/svg">
<path d="M115.6 73.5C112.833 73.5 110.433 73.0667 108.4 72.2C106.4 71.3333 104.867 70.2 103.8 68.8C102.733 67.3667 102.167 65.8333 102.1 64.2C102.1 63.9333 102.2 63.7 102.4 63.5C102.633 63.2667 102.9 63.15 103.2 63.15H105.75C106.383 63.15 106.817 63.4833 107.05 64.15C107.35 65.55 108.2 66.75 109.6 67.75C111.033 68.75 113.033 69.25 115.6 69.25C118.367 69.25 120.45 68.7667 121.85 67.8C123.25 66.8 123.95 65.4167 123.95 63.65C123.95 62.5167 123.6 61.6 122.9 60.9C122.233 60.2 121.233 59.5833 119.9 59.05C118.567 58.5167 116.567 57.85 113.9 57.05C111.3 56.3167 109.233 55.5333 107.7 54.7C106.167 53.8667 105.017 52.8333 104.25 51.6C103.483 50.3667 103.1 48.8167 103.1 46.95C103.1 45.15 103.583 43.5333 104.55 42.1C105.55 40.6667 106.967 39.55 108.8 38.75C110.633 37.9167 112.817 37.5 115.35 37.5C117.95 37.5 120.183 37.9667 122.05 38.9C123.917 39.8 125.333 40.95 126.3 42.35C127.267 43.75 127.783 45.15 127.85 46.55C127.85 46.8167 127.75 47.05 127.55 47.25C127.383 47.45 127.133 47.55 126.8 47.55H124.15C123.45 47.55 123.017 47.2333 122.85 46.6C122.65 45.2 121.867 44.05 120.5 43.15C119.133 42.2167 117.417 41.75 115.35 41.75C113.083 41.75 111.3 42.1833 110 43.05C108.7 43.9167 108.05 45.2 108.05 46.9C108.05 48.0333 108.35 48.9667 108.95 49.7C109.583 50.4333 110.533 51.0833 111.8 51.65C113.067 52.1833 114.917 52.8 117.35 53.5C120.183 54.2667 122.417 55.0667 124.05 55.9C125.683 56.7 126.9 57.7167 127.7 58.95C128.5 60.15 128.9 61.6833 128.9 63.55C128.9 66.65 127.7 69.0833 125.3 70.85C122.9 72.6167 119.667 73.5 115.6 73.5ZM148.204 73.5C143.837 73.5 140.437 72.3167 138.004 69.95C135.604 67.55 134.32 64.2833 134.154 60.15C134.12 59.15 134.104 57.5833 134.104 55.45C134.104 53.2833 134.12 51.7167 134.154 50.75C134.32 46.65 135.62 43.4167 138.054 41.05C140.487 38.6833 143.87 37.5 148.204 37.5C151.137 37.5 153.62 38.0333 155.654 39.1C157.72 40.1333 159.27 41.4 160.304 42.9C161.337 44.4 161.887 45.8 161.954 47.1V47.2C161.954 47.4667 161.854 47.6833 161.654 47.85C161.454 48.0167 161.204 48.1 160.904 48.1H157.954C157.62 48.1 157.37 48.05 157.204 47.95C157.07 47.8167 156.937 47.5667 156.804 47.2C156.304 45.7 155.337 44.4167 153.904 43.35C152.504 42.2833 150.604 41.75 148.204 41.75C145.437 41.75 143.27 42.5 141.704 44C140.137 45.5 139.287 47.8333 139.154 51C139.12 51.9667 139.104 53.45 139.104 55.45C139.104 57.4167 139.12 58.9 139.154 59.9C139.287 63.1 140.137 65.4667 141.704 67C143.27 68.5 145.437 69.25 148.204 69.25C151.004 69.25 153.237 68.4833 154.904 66.95C156.57 65.4167 157.404 63.1167 157.404 60.05V57.95H149.904C149.57 57.95 149.287 57.85 149.054 57.65C148.854 57.4167 148.754 57.1167 148.754 56.75V55.15C148.754 54.8167 148.854 54.5333 149.054 54.3C149.287 54.0667 149.57 53.95 149.904 53.95H161.204C161.537 53.95 161.804 54.0667 162.004 54.3C162.237 54.5 162.354 54.7833 162.354 55.15V59.95C162.354 62.6833 161.787 65.0667 160.654 67.1C159.52 69.1333 157.887 70.7167 155.754 71.85C153.62 72.95 151.104 73.5 148.204 73.5ZM166.453 73C166.186 73 165.953 72.9 165.753 72.7C165.553 72.5 165.453 72.2667 165.453 72C165.453 71.7333 165.47 71.55 165.503 71.45L177.903 39.1C178.17 38.3667 178.703 38 179.503 38H182.903C183.703 38 184.236 38.3667 184.503 39.1L196.853 71.45L196.953 72C196.953 72.2667 196.853 72.5 196.653 72.7C196.453 72.9 196.22 73 195.953 73H193.403C193.036 73 192.753 72.9167 192.553 72.75C192.353 72.55 192.22 72.35 192.153 72.15L189.403 65.05H173.003L170.253 72.15C170.186 72.35 170.036 72.55 169.803 72.75C169.603 72.9167 169.336 73 169.003 73H166.453ZM187.953 60.75L181.203 43L174.453 60.75H187.953ZM226.837 73.5C222.037 73.5 218.287 72.3333 215.587 70C212.887 67.6333 211.453 64.2833 211.287 59.95C211.253 58.9833 211.237 57.45 211.237 55.35C211.237 53.25 211.253 51.7167 211.287 50.75C211.453 46.5167 212.903 43.25 215.637 40.95C218.403 38.65 222.137 37.5 226.837 37.5C230.003 37.5 232.753 38.0167 235.087 39.05C237.453 40.0833 239.253 41.4 240.487 43C241.753 44.6 242.42 46.25 242.487 47.95C242.487 48.25 242.37 48.5 242.137 48.7C241.937 48.9 241.687 49 241.387 49H234.087C233.753 49 233.487 48.95 233.287 48.85C233.087 48.75 232.92 48.5667 232.787 48.3C232.353 47.3333 231.67 46.5 230.737 45.8C229.803 45.0667 228.503 44.7 226.837 44.7C222.87 44.7 220.787 46.8 220.587 51C220.553 51.9333 220.537 53.3833 220.537 55.35C220.537 57.2833 220.553 58.7333 220.587 59.7C220.787 64.1 222.92 66.3 226.987 66.3C228.953 66.3 230.52 65.8 231.687 64.8C232.887 63.7667 233.487 62.2 233.487 60.1V59.15H228.787C228.42 59.15 228.12 59.0333 227.887 58.8C227.653 58.5333 227.537 58.2167 227.537 57.85V54.15C227.537 53.7833 227.653 53.4833 227.887 53.25C228.12 52.9833 228.42 52.85 228.787 52.85H241.387C241.753 52.85 242.053 52.9833 242.287 53.25C242.52 53.4833 242.637 53.7833 242.637 54.15V59.85C242.637 62.6833 241.987 65.1333 240.687 67.2C239.387 69.2333 237.537 70.8 235.137 71.9C232.77 72.9667 230.003 73.5 226.837 73.5ZM249.073 73C248.706 73 248.406 72.8833 248.173 72.65C247.94 72.4167 247.823 72.1167 247.823 71.75V48.25C247.823 47.8833 247.94 47.5833 248.173 47.35C248.406 47.1167 248.706 47 249.073 47H254.823C255.19 47 255.49 47.1333 255.723 47.4C255.99 47.6333 256.123 47.9167 256.123 48.25V50.25C257.956 48.0833 260.423 47 263.523 47H265.723C266.09 47 266.39 47.1167 266.623 47.35C266.856 47.5833 266.973 47.8833 266.973 48.25V53.4C266.973 53.7333 266.856 54.0333 266.623 54.3C266.39 54.5333 266.09 54.65 265.723 54.65H260.873C259.506 54.65 258.44 55.0333 257.673 55.8C256.94 56.5333 256.573 57.5833 256.573 58.95V71.75C256.573 72.1167 256.44 72.4167 256.173 72.65C255.94 72.8833 255.64 73 255.273 73H249.073ZM282.284 73.5C278.284 73.5 275.134 72.4167 272.834 70.25C270.534 68.0833 269.334 64.9333 269.234 60.8V59.05C269.367 55.1167 270.584 52.05 272.884 49.85C275.217 47.6167 278.334 46.5 282.234 46.5C285.067 46.5 287.451 47.0833 289.384 48.25C291.351 49.3833 292.817 50.95 293.784 52.95C294.784 54.95 295.284 57.25 295.284 59.85V61.05C295.284 61.3833 295.167 61.6833 294.934 61.95C294.701 62.1833 294.401 62.3 294.034 62.3H278.034V62.65C278.101 64.2167 278.484 65.4833 279.184 66.45C279.884 67.4167 280.901 67.9 282.234 67.9C283.067 67.9 283.751 67.7333 284.284 67.4C284.817 67.0333 285.301 66.6 285.734 66.1C286.034 65.7333 286.267 65.5167 286.434 65.45C286.634 65.35 286.934 65.3 287.334 65.3H293.534C293.834 65.3 294.084 65.4 294.284 65.6C294.517 65.7667 294.634 66 294.634 66.3C294.634 67.1667 294.134 68.1667 293.134 69.3C292.167 70.4333 290.751 71.4167 288.884 72.25C287.017 73.0833 284.817 73.5 282.284 73.5ZM286.484 57.35V57.25C286.484 55.6167 286.101 54.3333 285.334 53.4C284.601 52.4333 283.567 51.95 282.234 51.95C280.934 51.95 279.901 52.4333 279.134 53.4C278.401 54.3333 278.034 55.6167 278.034 57.25V57.35H286.484ZM311.971 73.5C307.971 73.5 304.821 72.4167 302.521 70.25C300.221 68.0833 299.021 64.9333 298.921 60.8V59.05C299.055 55.1167 300.271 52.05 302.571 49.85C304.905 47.6167 308.021 46.5 311.921 46.5C314.755 46.5 317.138 47.0833 319.071 48.25C321.038 49.3833 322.505 50.95 323.471 52.95C324.471 54.95 324.971 57.25 324.971 59.85V61.05C324.971 61.3833 324.855 61.6833 324.621 61.95C324.388 62.1833 324.088 62.3 323.721 62.3H307.721V62.65C307.788 64.2167 308.171 65.4833 308.871 66.45C309.571 67.4167 310.588 67.9 311.921 67.9C312.755 67.9 313.438 67.7333 313.971 67.4C314.505 67.0333 314.988 66.6 315.421 66.1C315.721 65.7333 315.955 65.5167 316.121 65.45C316.321 65.35 316.621 65.3 317.021 65.3H323.221C323.521 65.3 323.771 65.4 323.971 65.6C324.205 65.7667 324.321 66 324.321 66.3C324.321 67.1667 323.821 68.1667 322.821 69.3C321.855 70.4333 320.438 71.4167 318.571 72.25C316.705 73.0833 314.505 73.5 311.971 73.5ZM316.171 57.35V57.25C316.171 55.6167 315.788 54.3333 315.021 53.4C314.288 52.4333 313.255 51.95 311.921 51.95C310.621 51.95 309.588 52.4333 308.821 53.4C308.088 54.3333 307.721 55.6167 307.721 57.25V57.35H316.171ZM330.909 73C330.542 73 330.242 72.8833 330.009 72.65C329.776 72.4167 329.659 72.1167 329.659 71.75V48.25C329.659 47.8833 329.776 47.5833 330.009 47.35C330.242 47.1167 330.542 47 330.909 47H336.659C337.026 47 337.326 47.1167 337.559 47.35C337.826 47.5833 337.959 47.8833 337.959 48.25V50.15C338.859 49.05 340.009 48.1667 341.409 47.5C342.842 46.8333 344.459 46.5 346.259 46.5C349.192 46.5 351.576 47.5 353.409 49.5C355.242 51.4667 356.159 54.2333 356.159 57.8V71.75C356.159 72.0833 356.042 72.3833 355.809 72.65C355.576 72.8833 355.276 73 354.909 73H348.609C348.276 73 347.976 72.8833 347.709 72.65C347.476 72.3833 347.359 72.0833 347.359 71.75V58.1C347.359 56.5333 346.976 55.3333 346.209 54.5C345.442 53.6333 344.342 53.2 342.909 53.2C341.509 53.2 340.409 53.6333 339.609 54.5C338.809 55.3333 338.409 56.5333 338.409 58.1V71.75C338.409 72.0833 338.292 72.3833 338.059 72.65C337.826 72.8833 337.526 73 337.159 73H330.909ZM374.232 73C373.899 73 373.599 72.8833 373.332 72.65C373.099 72.3833 372.982 72.0833 372.982 71.75V39.25C372.982 38.8833 373.099 38.5833 373.332 38.35C373.599 38.1167 373.899 38 374.232 38H397.232C397.599 38 397.899 38.1167 398.132 38.35C398.366 38.5833 398.482 38.8833 398.482 39.25V44.3C398.482 44.6333 398.366 44.9333 398.132 45.2C397.899 45.4333 397.599 45.55 397.232 45.55H381.782V52.9H396.232C396.599 52.9 396.899 53.0333 397.132 53.3C397.366 53.5333 397.482 53.8333 397.482 54.2V59.2C397.482 59.5333 397.366 59.8333 397.132 60.1C396.899 60.3333 396.599 60.45 396.232 60.45H381.782V71.75C381.782 72.1167 381.666 72.4167 381.432 72.65C381.199 72.8833 380.899 73 380.532 73H374.232ZM412.646 73.5C409.713 73.5 407.346 72.5167 405.546 70.55C403.746 68.55 402.846 65.7667 402.846 62.2V48.25C402.846 47.8833 402.963 47.5833 403.196 47.35C403.43 47.1167 403.73 47 404.096 47H410.346C410.713 47 411.013 47.1167 411.246 47.35C411.513 47.5833 411.646 47.8833 411.646 48.25V61.9C411.646 65.1667 413.096 66.8 415.996 66.8C417.396 66.8 418.496 66.3667 419.296 65.5C420.096 64.6333 420.496 63.4333 420.496 61.9V48.25C420.496 47.8833 420.613 47.5833 420.846 47.35C421.113 47.1167 421.413 47 421.746 47H427.996C428.363 47 428.663 47.1167 428.896 47.35C429.13 47.5833 429.246 47.8833 429.246 48.25V71.75C429.246 72.0833 429.13 72.3833 428.896 72.65C428.663 72.8833 428.363 73 427.996 73H422.196C421.863 73 421.563 72.8833 421.296 72.65C421.063 72.3833 420.946 72.0833 420.946 71.75V69.85C419.213 72.2833 416.446 73.5 412.646 73.5ZM436.378 73C436.011 73 435.711 72.8833 435.478 72.65C435.244 72.4167 435.128 72.1167 435.128 71.75V48.25C435.128 47.8833 435.244 47.5833 435.478 47.35C435.711 47.1167 436.011 47 436.378 47H442.128C442.494 47 442.794 47.1167 443.028 47.35C443.294 47.5833 443.428 47.8833 443.428 48.25V50.15C444.328 49.05 445.478 48.1667 446.878 47.5C448.311 46.8333 449.928 46.5 451.728 46.5C454.661 46.5 457.044 47.5 458.878 49.5C460.711 51.4667 461.628 54.2333 461.628 57.8V71.75C461.628 72.0833 461.511 72.3833 461.278 72.65C461.044 72.8833 460.744 73 460.378 73H454.078C453.744 73 453.444 72.8833 453.178 72.65C452.944 72.3833 452.828 72.0833 452.828 71.75V58.1C452.828 56.5333 452.444 55.3333 451.678 54.5C450.911 53.6333 449.811 53.2 448.378 53.2C446.978 53.2 445.878 53.6333 445.078 54.5C444.278 55.3333 443.878 56.5333 443.878 58.1V71.75C443.878 72.0833 443.761 72.3833 443.528 72.65C443.294 72.8833 442.994 73 442.628 73H436.378ZM476.957 73.5C473.69 73.5 471.14 72.4833 469.307 70.45C467.507 68.3833 466.523 65.4833 466.357 61.75L466.307 60L466.357 58.2C466.49 54.6 467.473 51.75 469.307 49.65C471.173 47.55 473.723 46.5 476.957 46.5C479.99 46.5 482.44 47.4833 484.307 49.45V38.75C484.307 38.3833 484.423 38.0833 484.657 37.85C484.89 37.6167 485.19 37.5 485.557 37.5H491.657C492.023 37.5 492.323 37.6167 492.557 37.85C492.79 38.0833 492.907 38.3833 492.907 38.75V71.75C492.907 72.0833 492.79 72.3833 492.557 72.65C492.323 72.8833 492.023 73 491.657 73H486.007C485.673 73 485.373 72.8833 485.107 72.65C484.873 72.3833 484.757 72.0833 484.757 71.75V70.15C482.923 72.3833 480.323 73.5 476.957 73.5ZM479.707 66.8C481.207 66.8 482.323 66.3333 483.057 65.4C483.79 64.4333 484.207 63.2 484.307 61.7C484.34 61.2667 484.357 60.6333 484.357 59.8C484.357 59 484.34 58.3833 484.307 57.95C484.24 56.5833 483.823 55.45 483.057 54.55C482.29 53.65 481.173 53.2 479.707 53.2C478.14 53.2 477.007 53.6667 476.307 54.6C475.64 55.5333 475.257 56.8167 475.157 58.45C475.123 58.7833 475.107 59.3 475.107 60C475.107 60.7 475.123 61.2167 475.157 61.55C475.257 63.1833 475.64 64.4667 476.307 65.4C477.007 66.3333 478.14 66.8 479.707 66.8Z" fill="#219653"/>
<path d="M58.957 72.5C58.332 72.707 57.5 72.707 56.875 72.918C57.5 72.707 58.332 72.5 58.957 72.5Z" fill="#219653"/>
<path d="M76.25 56.25C76.043 57.082 75.832 57.707 75.625 58.332C75.832 57.707 76.043 56.875 76.25 56.25Z" fill="#219653"/>
<path d="M75.418 58.543C75 59.375 74.586 60.211 74.168 61.043C74.5821 60.418 75 59.5821 75.418 58.543Z" fill="#219653"/>
<path d="M76.875 53.543C76.875 54.168 76.668 54.793 76.457 55.418C76.668 54.793 76.668 54.168 76.875 53.543Z" fill="#219653"/>
<path d="M77.082 50C77.082 50.832 77.082 51.875 76.875 52.707C77.082 51.875 77.082 50.832 77.082 50Z" fill="#219653"/>
<path d="M56.668 72.707C55.8321 72.9179 55 72.9179 54.168 72.9179C55 72.9179 55.8321 72.9179 56.668 72.707Z" fill="#219653"/>
<path d="M76.457 55.418C76.457 55.625 76.25 55.836 76.25 56.043C76.25 55.8321 76.25 55.625 76.457 55.418Z" fill="#219653"/>
<path d="M76.875 52.707C76.875 52.914 76.875 53.125 76.668 53.539C76.875 53.125 76.875 52.9179 76.875 52.707Z" fill="#219653"/>
<path d="M59.168 72.293C58.9571 72.293 58.9571 72.5 59.168 72.293C58.9571 72.5 58.9571 72.293 59.168 72.293Z" fill="#219653"/>
<path d="M75.418 58.332C75.418 58.539 75.418 58.539 75.211 58.75C75.418 58.5429 75.418 58.332 75.418 58.332Z" fill="#219653"/>
<path d="M71.668 64.793C65 56.875 55.625 48.125 48.961 42.086C48.543 41.668 48.336 41.254 48.336 40.629C48.336 39.379 49.168 38.547 50.418 38.547C50.836 38.547 51.461 38.754 51.875 38.965H52.082C61.457 47.508 68.957 54.797 74.375 61.047C74.793 60.2149 75.2071 59.379 75.625 58.547C75.625 58.547 75.625 58.3399 75.8321 58.129C76.0391 57.504 76.25 56.672 76.4571 56.047C76.4571 55.84 76.6641 55.629 76.6641 55.422C76.8711 54.797 76.8711 54.172 77.0821 53.547C77.0821 53.34 77.0821 53.129 77.2891 52.715C77.0821 51.8751 77.0821 50.8322 77.0821 50.0002C77.0821 33.7502 60.0001 25.2072 43.7501 25.0002C28.9571 24.7931 20.8321 20.8322 20.8321 20.8322C20.8321 20.8322 22.9141 42.0822 27.2891 53.9572C32.293 67.5002 41.4571 72.9182 54.1681 72.9182C55.0001 72.9182 55.8361 72.9182 56.6681 72.7111H56.8751C57.5001 72.7111 58.3321 72.5041 58.9571 72.2932H59.1641C60.6211 71.8752 62.0821 71.4611 63.5391 70.8362C64.7891 70.2112 66.0391 69.5862 67.2891 68.7542C71.4571 73.5472 74.1641 77.2972 74.1641 78.9612H80.4141C80.2071 75.8323 76.668 70.4182 71.668 64.7932L71.668 64.793Z" fill="#219653"/>
</svg>
